<svg xmlns="http://www.w3.org/2000/svg" xmlns:xlink="http://www.w3.org/1999/xlink" viewBox="0 0 65 65" fill="#fff" fill-rule="evenodd" stroke="#000" stroke-linecap="round" stroke-linejoin="round"><use xlink:href="#A" x=".5" y=".5"/><symbol id="A" overflow="visible"><path d="M23.7 59.5c-5.18 5.373-13.72 5.47-18.998.288s-5.47-13.72-.192-18.998c5.18-5.373 13.72-5.47 18.998-.288s5.373 13.625.192 18.998zm36.846-29.755l1.535 5.66-6.237 2.6-2.975-5 .192-.096c-2.207.384-4.5.48-6.813 0l-2.975 5-6.237-2.6 1.44-5.66.096.096c-1.823-1.343-3.454-2.88-4.702-4.702l-5.66 1.44-2.6-6.237 5-2.975.096.192c-.384-2.207-.384-4.5 0-6.813l-5-2.975 2.6-6.237 5.66 1.44-.096.192C34.638 1.92 35.5.97 36.557 0H4.126C1.824 0 0 1.92 0 4.222v27.25l3.838 2.783-.096.096c1.92-1.247 3.934-2.1 6.14-2.6l.768-5.66 6.62-.096.864 5.66h-.192c2.1.384 4.222 1.247 6.14 2.4l4.5-3.454 4.702 4.606-3.358 4.606-.096-.096a19.09 19.09 0 0 1 2.6 6.045l5.66.768.096 6.62-5.66.96v-.192c-.48 2.1-1.247 4.222-2.4 6.14L33.199 64h26.483c2.303 0 4.126-1.823 4.126-4.222v-32.72l-3.262 2.687zm1.728-10.46c-2.87 7.015-10.94 10.268-17.847 7.4-7.004-2.88-10.267-10.94-7.388-17.847C39.916 1.823 47.976-1.44 54.884 1.44c7.004 2.88 10.267 10.843 7.388 17.847z" stroke="none" fill="#b61f29" fill-rule="nonzero"/></symbol></svg>