<?xml version="1.0" encoding="UTF-8"?>
<svg xmlns="http://www.w3.org/2000/svg" xmlns:xlink="http://www.w3.org/1999/xlink" width="16pt" height="16pt" viewBox="0 0 16 16" version="1.1">
<g id="surface1">
<path style=" stroke:none;fill-rule:nonzero;fill:rgb(71.372549%,12.156863%,16.078431%);fill-opacity:1;" d="M 5.949219 14.875 C 4.652344 16.21875 2.519531 16.242188 1.199219 14.945312 C -0.121094 13.652344 -0.167969 11.515625 1.152344 10.199219 C 2.445312 8.855469 4.582031 8.828125 5.902344 10.125 C 7.21875 11.421875 7.246094 13.53125 5.949219 14.875 Z M 15.160156 7.4375 L 15.542969 8.851562 L 13.984375 9.5 L 13.242188 8.25 L 13.289062 8.226562 C 12.738281 8.324219 12.164062 8.347656 11.585938 8.226562 L 10.84375 9.476562 L 9.28125 8.828125 L 9.644531 7.414062 L 9.667969 7.4375 C 9.210938 7.101562 8.804688 6.714844 8.492188 6.261719 L 7.078125 6.621094 L 6.425781 5.0625 L 7.675781 4.316406 L 7.699219 4.367188 C 7.605469 3.8125 7.605469 3.242188 7.699219 2.664062 L 6.449219 1.917969 L 7.101562 0.359375 L 8.515625 0.71875 L 8.492188 0.765625 C 8.683594 0.480469 8.898438 0.242188 9.164062 0 L 1.054688 0 C 0.480469 0 0.0234375 0.480469 0.0234375 1.054688 L 0.0234375 7.867188 L 0.984375 8.5625 L 0.960938 8.585938 C 1.441406 8.277344 1.941406 8.0625 2.496094 7.9375 L 2.6875 6.523438 L 4.339844 6.5 L 4.558594 7.914062 L 4.507812 7.914062 C 5.035156 8.007812 5.566406 8.226562 6.042969 8.515625 L 7.167969 7.648438 L 8.34375 8.800781 L 7.503906 9.953125 L 7.480469 9.929688 C 7.785156 10.390625 8.003906 10.902344 8.132812 11.441406 L 9.546875 11.632812 L 9.570312 13.289062 L 8.15625 13.527344 L 8.15625 13.480469 C 8.035156 14.003906 7.84375 14.535156 7.554688 15.015625 L 8.324219 16 L 14.945312 16 C 15.519531 16 15.976562 15.542969 15.976562 14.945312 L 15.976562 6.765625 Z M 15.59375 4.820312 C 14.875 6.574219 12.859375 7.386719 11.128906 6.667969 C 9.378906 5.949219 8.5625 3.933594 9.285156 2.207031 C 10.003906 0.457031 12.019531 -0.359375 13.746094 0.359375 C 15.496094 1.078125 16.3125 3.070312 15.59375 4.820312 Z M 15.59375 4.820312 "/>
</g>
</svg>
