<?xml version="1.0" standalone="no"?>
<!DOCTYPE svg PUBLIC "-//W3C//DTD SVG 1.0//EN" "http://www.w3.org/TR/2001/REC-SVG-20010904/DTD/svg10.dtd">
<svg xmlns="http://www.w3.org/2000/svg" xmlns:xlink="http://www.w3.org/1999/xlink" id="body_1" width="10" height="10">

<g transform="matrix(0.15625 0 0 0.15625 0 0)">
    <path transform="matrix(1 0 0 1 0 0)"  d="M23.796 59.5C 18.616 64.873 10.076 64.97 4.798 59.788C -0.4799986 54.606 -0.6719995 46.068 4.606 40.79C 9.786 35.417 18.326 35.32 23.604 40.502C 28.882 45.68401 28.977 54.127 23.796 59.5zM60.642 29.745L62.177 35.405L55.94 38.005L52.965 33.005L53.157 32.909C 50.95 33.293 48.657 33.389 46.344 32.909L46.344 32.909L43.369 37.909L37.132 35.309L38.572 29.649L38.668 29.745C 36.845 28.402 35.214 26.865 33.966 25.043L33.966 25.043L28.306 26.483L25.706 20.246L30.706 17.271L30.802 17.463C 30.418 15.256 30.418 12.963 30.802 10.65L30.802 10.65L25.802 7.675L28.402 1.438L34.062 2.878L33.966 3.07C 34.734 1.92 35.596 0.9699998 36.653 -2.384186E-07L36.653 -2.384186E-07L4.222004 -2.384186E-07C 1.920004 -2.384186E-07 0.09600401 1.92 0.09600401 4.222L0.09600401 4.222L0.09600401 31.472L3.934004 34.255L3.838004 34.351C 5.758004 33.104 7.772004 32.251 9.978004 31.751L9.978004 31.751L10.746 26.091L17.366 25.995L18.23001 31.655L18.03801 31.655C 20.13801 32.039 22.26001 32.902 24.17801 34.055L24.17801 34.055L28.67801 30.601L33.38 35.207L30.02201 39.813L29.926 39.717C 31.13605 41.56631 32.01578 43.61169 32.526 45.762L32.526 45.762L38.186 46.53L38.28201 53.15L32.62201 54.11L32.62201 53.918C 32.14201 56.018 31.37501 58.14 30.22201 60.058L30.22201 60.058L33.29501 64L59.77801 64C 62.08101 64 63.90401 62.177 63.90401 59.778L63.90401 59.778L63.90401 27.058zM62.37 19.285C 59.5 26.3 51.43 29.553 44.523 26.675C 37.519 23.795 34.256 15.735 37.135 8.827999C 40.012 1.822999 48.072 -1.440001 54.98 1.439999C 61.984 4.319999 65.24699 12.283 62.368 19.287z" stroke="none" fill="#B61F29" fill-rule="nonzero" />
</g>
</svg>